ffmpeg version 3.4.8-0ubuntu0.2 Copyright (c) 2000-2020 the FFmpeg developers
  built with gcc 7 (Ubuntu 7.5.0-3ubuntu1~18.04)
  configuration: --prefix=/usr --extra-version=0ubuntu0.2 --toolchain=hardened --libdir=/usr/lib/x86_64-linux-gnu --incdir=/usr/include/x86_64-linux-gnu --enable-gpl --disable-stripping --enable-avresample --enable-avisynth --enable-gnutls --enable-ladspa --enable-libass --enable-libbluray --enable-libbs2b --enable-libcaca --enable-libcdio --enable-libflite --enable-libfontconfig --enable-libfreetype --enable-libfribidi --enable-libgme --enable-libgsm --enable-libmp3lame --enable-libmysofa --enable-libopenjpeg --enable-libopenmpt --enable-libopus --enable-libpulse --enable-librubberband --enable-librsvg --enable-libshine --enable-libsnappy --enable-libsoxr --enable-libspeex --enable-libssh --enable-libtheora --enable-libtwolame --enable-libvorbis --enable-libvpx --enable-libwavpack --enable-libwebp --enable-libx265 --enable-libxml2 --enable-libxvid --enable-libzmq --enable-libzvbi --enable-omx --enable-openal --enable-opengl --enable-sdl2 --enable-libdc1394 --enable-libdrm --enable-libiec61883 --enable-chromaprint --enable-frei0r --enable-libopencv --enable-libx264 --enable-shared
  libavutil      55. 78.100 / 55. 78.100
  libavcodec     57.107.100 / 57.107.100
  libavformat    57. 83.100 / 57. 83.100
  libavdevice    57. 10.100 / 57. 10.100
  libavfilter     6.107.100 /  6.107.100
  libavresample   3.  7.  0 /  3.  7.  0
  libswscale      4.  8.100 /  4.  8.100
  libswresample   2.  9.100 /  2.  9.100
  libpostproc    54.  7.100 / 54.  7.100
Input #0, lmlm4, from '../.././Samples/LMLM4_CIFat30fps.divx':
  Duration: N/A, bitrate: N/A
    Stream #0:0: Video: mpeg4 (Simple Profile), yuv420p, 320x240 [SAR 1:1 DAR 4:3], 29.97 fps, 29.97 tbr, 29.97 tbn, 30k tbc
    Stream #0:1: Audio: mp2, 48000 Hz, stereo, s16p, 256 kb/s
Stream mapping:
  Stream #0:0 -> #0:0 (mpeg4 (native) -> h264 (libx264))
  Stream #0:1 -> #0:1 (mp2 (native) -> aac (native))
Press [q] to stop, [?] for help
[libx264 @ 0x5589e4451e00] using SAR=1/1
[libx264 @ 0x5589e4451e00] using cpu capabilities: MMX2 SSE2Fast SSSE3 SSE4.2 AVX FMA3 BMI2 AVX2
[libx264 @ 0x5589e4451e00] profile High, level 1.3
[libx264 @ 0x5589e4451e00] 264 - core 152 r2854 e9a5903 - H.264/MPEG-4 AVC codec - Copyleft 2003-2017 - http://www.videolan.org/x264.html - options: cabac=1 ref=3 deblock=1:0:0 analyse=0x3:0x113 me=hex subme=7 psy=1 psy_rd=1.00:0.00 mixed_ref=1 me_range=16 chroma_me=1 trellis=1 8x8dct=1 cqm=0 deadzone=21,11 fast_pskip=1 chroma_qp_offset=-2 threads=6 lookahead_threads=1 sliced_threads=0 nr=0 decimate=1 interlaced=0 bluray_compat=0 constrained_intra=0 bframes=3 b_pyramid=2 b_adapt=1 b_bias=0 direct=1 weightb=1 open_gop=0 weightp=2 keyint=250 keyint_min=25 scenecut=40 intra_refresh=0 rc_lookahead=40 rc=crf mbtree=1 crf=23.0 qcomp=0.60 qpmin=0 qpmax=69 qpstep=4 ip_ratio=1.40 aq=1:1.00
Output #0, mov, to '/home/aleksandr/Pract/Samples/LMLM4_CIFat30fps.divx_tc/output_tc1.mov':
  Metadata:
    encoder         : Lavf57.83.100
    Stream #0:0: Video: h264 (libx264) (avc1 / 0x31637661), yuv420p, 320x240 [SAR 1:1 DAR 4:3], q=-1--1, 29.97 fps, 30k tbn, 29.97 tbc
    Metadata:
      encoder         : Lavc57.107.100 libx264
    Side data:
      cpb: bitrate max/min/avg: 0/0/0 buffer size: 0 vbv_delay: -1
    Stream #0:1: Audio: aac (LC) (mp4a / 0x6134706D), 48000 Hz, stereo, fltp, 128 kb/s
    Metadata:
      encoder         : Lavc57.107.100 aac
frame=  162 fps=0.0 q=29.0 size=       0kB time=00:00:05.97 bitrate=   0.0kbits/s dup=1 drop=0 speed=11.9x    frame=  370 fps=370 q=29.0 size=     512kB time=00:00:12.90 bitrate= 325.0kbits/s dup=1 drop=0 speed=12.9x    [lmlm4 @ 0x5589e43be000] packet size 0 is invalid
../.././Samples/LMLM4_CIFat30fps.divx: Input/output error
[lmlm4 @ 0x5589e43be000] packet size 0 is invalid
../.././Samples/LMLM4_CIFat30fps.divx: Input/output error
[lmlm4 @ 0x5589e43be000] packet size 0 is invalid
../.././Samples/LMLM4_CIFat30fps.divx: Input/output error
[lmlm4 @ 0x5589e43be000] packet size 0 is invalid
../.././Samples/LMLM4_CIFat30fps.divx: Input/output error
[lmlm4 @ 0x5589e43be000] packet size 0 is invalid
../.././Samples/LMLM4_CIFat30fps.divx: Input/output error
[lmlm4 @ 0x5589e43be000] packet size 0 is invalid
../.././Samples/LMLM4_CIFat30fps.divx: Input/output error
frame=  423 fps=355 q=-1.0 Lsize=     774kB time=00:00:14.63 bitrate= 433.1kbits/s dup=1 drop=0 speed=12.3x    
video:525kB audio:234kB subtitle:0kB other streams:0kB global headers:0kB muxing overhead: 1.942055%
[libx264 @ 0x5589e4451e00] frame I:2     Avg QP:22.88  size:  5193
[libx264 @ 0x5589e4451e00] frame P:336   Avg QP:24.01  size:  1419
[libx264 @ 0x5589e4451e00] frame B:85    Avg QP:27.11  size:   584
[libx264 @ 0x5589e4451e00] consecutive B-frames: 66.4% 18.0%  7.1%  8.5%
[libx264 @ 0x5589e4451e00] mb I  I16..4: 25.5% 61.3% 13.2%
[libx264 @ 0x5589e4451e00] mb P  I16..4:  4.7%  6.7%  0.4%  P16..4: 36.4% 11.3%  5.8%  0.0%  0.0%    skip:34.7%
[libx264 @ 0x5589e4451e00] mb B  I16..4:  2.1%  3.5%  0.0%  B16..8: 38.1%  4.5%  0.7%  direct: 3.9%  skip:47.3%  L0:59.6% L1:26.3% BI:14.1%
[libx264 @ 0x5589e4451e00] 8x8 transform intra:57.7% inter:79.6%
[libx264 @ 0x5589e4451e00] coded y,uvDC,uvAC intra: 30.5% 49.0% 8.5% inter: 17.7% 10.5% 0.3%
[libx264 @ 0x5589e4451e00] i16 v,h,dc,p: 34% 47% 16%  4%
[libx264 @ 0x5589e4451e00] i8 v,h,dc,ddl,ddr,vr,hd,vl,hu: 20% 26% 43%  3%  1%  1%  1%  1%  4%
[libx264 @ 0x5589e4451e00] i4 v,h,dc,ddl,ddr,vr,hd,vl,hu: 39% 29% 19%  2%  2%  2%  3%  1%  3%
[libx264 @ 0x5589e4451e00] i8c dc,h,v,p: 49% 31% 19%  1%
[libx264 @ 0x5589e4451e00] Weighted P-Frames: Y:3.0% UV:1.2%
[libx264 @ 0x5589e4451e00] ref P L0: 69.3% 11.6% 13.2%  5.9%  0.1%
[libx264 @ 0x5589e4451e00] ref B L0: 81.1% 16.7%  2.1%
[libx264 @ 0x5589e4451e00] ref B L1: 98.5%  1.5%
[libx264 @ 0x5589e4451e00] kb/s:304.28
[aac @ 0x5589e4452d00] Qavg: 1259.649
	Command being timed: "/usr/bin/ffmpeg -i ../.././Samples/LMLM4_CIFat30fps.divx -c:v libx264 -f mov /home/aleksandr/Pract/Samples/LMLM4_CIFat30fps.divx_tc/output_tc1.mov"
	User time (seconds): 3.39
	System time (seconds): 0.08
	Percent of CPU this job got: 241%
	Elapsed (wall clock) time (h:mm:ss or m:ss): 0:01.44
	Average shared text size (kbytes): 0
	Average unshared data size (kbytes): 0
	Average stack size (kbytes): 0
	Average total size (kbytes): 0
	Maximum resident set size (kbytes): 77428
	Average resident set size (kbytes): 0
	Major (requiring I/O) page faults: 34
	Minor (reclaiming a frame) page faults: 12014
	Voluntary context switches: 4086
	Involuntary context switches: 510
	Swaps: 0
	File system inputs: 8416
	File system outputs: 1568
	Socket messages sent: 0
	Socket messages received: 0
	Signals delivered: 0
	Page size (bytes): 4096
	Exit status: 0
